<svg xmlns="http://www.w3.org/2000/svg" viewBox="0 0 200 200.07"><defs><style>.cls-1{fill:#ee4036;}</style></defs><title>arrow</title><g id="Layer_2" data-name="Layer 2"><g id="pages"><path class="cls-1" d="M176.24.06a2.23,2.23,0,0,0-1,.58L154.3,19.24a2.31,2.31,0,0,0-.8,1.75V43.23l-4.36,4.36a90.95,90.95,0,1,0,3.27,3.34l4.36-4.36h22.31a2.29,2.29,0,0,0,1.74-.8l18.61-20.93a2.33,2.33,0,0,0-.23-3.28,2.29,2.29,0,0,0-1.51-.57H179.08V2.38A2.33,2.33,0,0,0,176.81,0,2.21,2.21,0,0,0,176.24.06Zm-1.81,7.48V23.31a2.32,2.32,0,0,0,2.32,2.33h15.7L178,41.92H158.15V22ZM88.38,28a83.57,83.57,0,0,1,57.49,22.9L126.1,70.63a54.55,54.55,0,1,0,3.34,3.27l19.7-19.7A83.65,83.65,0,1,1,88.38,28Zm0,32.56a51.13,51.13,0,0,1,34.45,13.3L104.66,92A25.88,25.88,0,1,0,108,95.34l18.17-18.17A51.18,51.18,0,1,1,88.38,60.52Zm0,30.24a20.78,20.78,0,0,1,13,4.58L86.71,110a2.34,2.34,0,0,0,3.34,3.27l14.68-14.68a20.94,20.94,0,1,1-16.35-7.85Z"/></g></g></svg>