<svg xmlns="http://www.w3.org/2000/svg" viewBox="0 0 261.99 188.86"><title>laptop</title><g id="Layer_2" data-name="Layer 2"><g id="pages"><path d="M216.13,122.63H46.22A11.94,11.94,0,0,1,34.3,110.7V11.91A11.93,11.93,0,0,1,46.22,0H216.13a11.93,11.93,0,0,1,11.92,11.91V110.7A11.94,11.94,0,0,1,216.13,122.63ZM46.22,3.91a8,8,0,0,0-8,8V110.7a8,8,0,0,0,8,8H216.13a8,8,0,0,0,8-8V11.91a8,8,0,0,0-8-8Z"/><path d="M217.19,112.26h-172a1,1,0,0,1-1-1V11.35a1,1,0,0,1,1-1h172a1,1,0,0,1,1,1v99.93A1,1,0,0,1,217.19,112.26Zm-171-2H216.21v-98H46.14v98Z"/><path d="M249.61,180.32H12.39c-6.29,0-10.66-1.5-12-4.13A4,4,0,0,1,1,171.77l34.62-46.2c2.6-3.48,9.22-6.21,15.06-6.21H211.33c5.84,0,12.46,2.73,15.07,6.21L261,171.76a4.05,4.05,0,0,1,.56,4.42C259.71,179.92,252.58,180.32,249.61,180.32Zm-199-57c-4.58,0-10,2.13-11.94,4.65L4.1,174.1a1.33,1.33,0,0,0-.19.36c.18.47,2.62,1.95,8.48,1.95H249.61c5.85,0,8.29-1.47,8.47-2h0a2.4,2.4,0,0,0-.2-.33l-34.61-46.18c-1.88-2.52-7.35-4.65-11.93-4.65Z"/><path d="M153.78,99.1H108.55a1,1,0,0,1,0-1.95h45.23a1,1,0,0,1,0,1.95Z"/><path d="M130.8,73.38a1,1,0,0,1,1,1V91.28a1,1,0,0,1-2,0V74.36A1,1,0,0,1,130.8,73.38Z"/><path d="M130.8,73.38a1,1,0,0,1,.69.29l5.63,5.63a1,1,0,1,1-1.39,1.38l-4.93-4.94-5,4.94a1,1,0,0,1-1.38,0,1,1,0,0,1,0-1.38l5.64-5.63A1,1,0,0,1,130.8,73.38Z"/><path d="M238.18,159.63H25a1,1,0,0,1-.87-.52,1,1,0,0,1,.06-1l19.44-28.54a1,1,0,0,1,.81-.42H218.81a1,1,0,0,1,.81.42L239,158.1a1,1,0,0,1,.06,1A1,1,0,0,1,238.18,159.63Zm-211.3-2H236.33l-18-26.58H45Z"/><path d="M145.32,71a2,2,0,0,1-1.48-.68c-.17-.19-4.46-4.91-13-4.91s-12.87,4.72-13.05,4.92a2,2,0,0,1-2.75.18,1.94,1.94,0,0,1-.19-2.74c.22-.26,5.53-6.27,16-6.27s15.78,6,16,6.27a1.94,1.94,0,0,1-.2,2.75A2,2,0,0,1,145.32,71Z"/><path d="M151.37,63.75a1.94,1.94,0,0,1-1.46-.65c-.16-.18-6.52-7-19.11-7s-19,6.77-19.11,7a2,2,0,0,1-2.76.16,1.94,1.94,0,0,1-.16-2.75c.3-.34,7.6-8.27,22-8.27s21.73,7.93,22,8.27a1.94,1.94,0,0,1-1.46,3.24Z"/><path d="M157.42,56.49a2,2,0,0,1-1.45-.64c-.14-.16-8.58-9-25.17-9s-25,8.81-25.17,9a2,2,0,0,1-2.9-2.62c.39-.42,9.68-10.26,28.08-10.26s27.68,9.84,28.07,10.26a1.95,1.95,0,0,1-1.46,3.26Z"/><path d="M163.47,49.23a2,2,0,0,1-1.43-.62c-.14-.15-10.65-11-31.24-11s-31.1,10.87-31.24,11A2,2,0,0,1,96.69,46c.47-.5,11.74-12.26,34.12-12.26S164.44,45.45,164.91,46a2,2,0,0,1-1.44,3.28Z"/><path d="M169.52,42a2,2,0,0,1-1.42-.6c-.12-.13-12.72-13-37.3-13s-37.19,12.91-37.31,13a2,2,0,0,1-2.84-2.69c.55-.58,13.8-14.26,40.15-14.26s39.59,13.68,40.14,14.26A1.95,1.95,0,0,1,169.52,42Z"/><path d="M249.61,188.86H12.39c-3.16,0-8.83-.41-11.28-3.13A4,4,0,0,1,0,182.57v-7.83a2.71,2.71,0,0,1,0-.57v-.11a2,2,0,0,1,3.49-1.23,2,2,0,0,1,.42,1.58v.07c.25.51,2.71,1.93,8.46,1.93H249.61c5.61,0,8.08-1.36,8.43-1.91v-.19a1.94,1.94,0,0,1,.42-1.48A2,2,0,0,1,262,174a3.62,3.62,0,0,1,0,.93v7.87a3.79,3.79,0,0,1-1.05,2.91C258.47,188.45,252.78,188.86,249.61,188.86ZM3.93,179v3.77c.15.7,2.57,2.17,8.46,2.17H249.61c5.83,0,8.27-1.46,8.45-2v-4a23.11,23.11,0,0,1-8.44,1.3H12.39A23.37,23.37,0,0,1,3.93,179Z"/></g></g></svg>