<svg xmlns="http://www.w3.org/2000/svg" viewBox="0 0 194 194.01"><defs><style>.cls-1{fill:#ee4036;}</style></defs><title>rocket</title><g id="Layer_2" data-name="Layer 2"><g id="pages"><path class="cls-1" d="M45.57,92.38A158.38,158.38,0,0,0,35.5,110.84a2.42,2.42,0,0,0,.5,2.68L80.48,158a2.4,2.4,0,0,0,1.72.71,2.33,2.33,0,0,0,1-.2,159.32,159.32,0,0,0,18.46-10.07,2.42,2.42,0,1,0-2.55-4.12,179.82,179.82,0,0,1-16.35,9.05L40.64,111.29A177.9,177.9,0,0,1,49.7,94.93a2.43,2.43,0,1,0-4.13-2.55Z"/><path class="cls-1" d="M66.94,152.19a2.43,2.43,0,0,0-2.76-.49,15.55,15.55,0,0,1-14-.62,2.43,2.43,0,1,0-2.32,4.26,20.56,20.56,0,0,0,16.75,1.42l3.08,3.13c-13.3,14.8-35.83,13.34-44.31,12.16,2-4.58,1.56-9.93,1.1-15.53-.8-10-1.63-20.35,9.63-30.18l3.4,3.4a24.28,24.28,0,0,0,1,15.28s1.72,4.76-.29,8.15c-1.16,2-3.46,3.23-6.84,3.74a2.43,2.43,0,1,0,.73,4.8c4.91-.75,8.38-2.8,10.31-6.11,3.17-5.41.74-12,.59-12.39a20.14,20.14,0,0,1-.44-13.54,2.44,2.44,0,0,0-.62-2.38L36,121.35a2.43,2.43,0,0,0-3.22-.19c-15,11.84-14,25.1-13.11,35.76.5,6.27.94,11.7-2.06,15.39a2.43,2.43,0,0,0-.41,2.32,2.4,2.4,0,0,0,1.75,1.57,71.29,71.29,0,0,0,14.81,1.47c11.93,0,28.41-2.84,39.13-16.4a2.44,2.44,0,0,0-.17-3.2Z"/><path class="cls-1" d="M158.14,68.9A23.37,23.37,0,0,0,141.62,29h0A23.36,23.36,0,1,0,158.14,68.9Zm-35-16.52a18.52,18.52,0,0,1,18.51-18.51h0a18.51,18.51,0,1,1-18.51,18.51Z"/><path class="cls-1" d="M194,2.7A2.41,2.41,0,0,0,191.3,0l-7.86.89c-4.83-.73-50.37-6-98.88,42.47q-2.61,2.61-5,5.19H50a2.41,2.41,0,0,0-1.85.86L.57,105.81a2.43,2.43,0,0,0,.14,3.28l6.72,6.72a2.42,2.42,0,0,0,2.92.4L37.7,100.62a2.43,2.43,0,1,0-2.4-4.22L9.55,111.07l-3.83-3.84L51.1,53.43H80.55a2.42,2.42,0,0,0,1.77-.76C84.15,50.73,86,48.78,88,46.82c25.28-25.28,49.75-35.1,65.84-38.89,17.42-4.09,29-2.21,29.14-2.19a2.29,2.29,0,0,0,.69,0l5.16-.59-.59,5.16a2.66,2.66,0,0,0,0,.69c0,.11,1.91,11.72-2.19,29.15-3.78,16.08-13.6,40.56-38.88,65.83-2,2-3.91,3.85-5.85,5.68a2.42,2.42,0,0,0-.76,1.77v29.45l-53.8,45.38L83,184.52l16.06-25.29a2.43,2.43,0,1,0-4.1-2.6l-17.1,26.93a2.42,2.42,0,0,0,.34,3l6.72,6.73a2.43,2.43,0,0,0,3.28.14l56.37-47.55a2.41,2.41,0,0,0,.86-1.86V114.5c1.72-1.64,3.46-3.32,5.2-5.06,48.51-48.51,43.2-94,42.47-98.88Z"/><path class="cls-1" d="M84.41,105.22l-20,20a2.43,2.43,0,0,0,1.71,4.14,2.46,2.46,0,0,0,1.72-.71l20-20a2.43,2.43,0,0,0-3.43-3.43Z"/><path class="cls-1" d="M74.4,95.21l-20,20a2.43,2.43,0,1,0,3.43,3.44l20-20a2.43,2.43,0,0,0-3.43-3.44Z"/><path class="cls-1" d="M74.22,138.51a2.43,2.43,0,0,0,3.43,0l20-20a2.43,2.43,0,0,0-3.43-3.43l-20,20A2.43,2.43,0,0,0,74.22,138.51Z"/><path class="cls-1" d="M73.79,61.44H51.54a2.43,2.43,0,1,0,0,4.85H73.79a2.43,2.43,0,0,0,0-4.85Z"/><path class="cls-1" d="M127.71,120.22v22.24a2.43,2.43,0,1,0,4.85,0V120.22a2.43,2.43,0,1,0-4.85,0Z"/></g></g></svg>